<?xml version="1.0" encoding="utf-8"?>
<!-- Uploaded to: SVG Repo, www.svgrepo.com, Generator: SVG Repo Mixer Tools -->
<svg width="800px" height="800px" viewBox="0 0 1024 1024" class="icon"  version="1.1" xmlns="http://www.w3.org/2000/svg"><path d="M512 277.333333c-153.6 0-277.333333 123.733333-277.333333 277.333334s123.733333 277.333333 277.333333 277.333333 277.333333-123.733333 277.333333-277.333333-123.733333-277.333333-277.333333-277.333334z m0 469.333334c-106.666667 0-192-85.333333-192-192s85.333333-192 192-192 192 85.333333 192 192-85.333333 192-192 192z" fill="#00A344" /><path d="M181.333333 541.866667c85.333333-46.933333 192-23.466667 245.333334 53.333333 2.133333 2.133333 4.266667 2.133333 6.4 2.133333l25.6-14.933333c2.133333-2.133333 4.266667-4.266667 2.133333-6.4 0-4.266667-2.133333-8.533333-2.133333-12.8v-4.266667-4.266666-4.266667c0-2.133333 0-2.133333 2.133333-4.266667 0-2.133333 0-2.133333 2.133333-4.266666 0 0 0-2.133333 2.133334-2.133334 0 0 0-2.133333 2.133333-2.133333 0 0 0-2.133333 2.133333-2.133333l2.133334-2.133334 2.133333-2.133333 2.133333-2.133333 2.133334-2.133334 2.133333-2.133333h2.133333c4.266667-2.133333 8.533333-4.266667 10.666667-4.266667 2.133333 0 4.266667-2.133333 4.266667-6.4v-27.733333c0-2.133333-2.133333-4.266667-4.266667-4.266667-96-8.533333-170.666667-87.466667-170.666667-183.466666 0-87.466667 64-162.133333 147.2-179.2 2.133333 0 4.266667-2.133333 4.266667-6.4v-10.666667c0-2.133333-2.133333-4.266667-4.266667-4.266667-119.466667 19.2-213.333333 123.733333-213.333333 249.6 0 27.733333 4.266667 55.466667 12.8 81.066667-25.6 4.266667-53.333333 14.933333-76.8 27.733333-110.933333 64-155.733333 196.266667-110.933333 309.333334 2.133333 2.133333 4.266667 2.133333 6.4 2.133333l6.4-4.266667c2.133333-2.133333 4.266667-4.266667 2.133333-6.4-25.6-81.066667 6.4-172.8 85.333333-215.466666z m650.666667-85.333334c-25.6-14.933333-51.2-23.466667-76.8-27.733333 8.533333-25.6 12.8-51.2 12.8-81.066667 0-125.866667-93.866667-230.4-217.6-249.6-2.133333 0-4.266667 2.133333-4.266667 4.266667v8.533333c0 2.133333 2.133333 4.266667 4.266667 6.4 85.333333 17.066667 147.2 91.733333 147.2 179.2 0 96-74.666667 174.933333-170.666667 183.466667-2.133333 0-4.266667 2.133333-4.266666 4.266667V512c0 2.133333 2.133333 4.266667 4.266666 6.4 4.266667 2.133333 8.533333 2.133333 12.8 4.266667l2.133334 2.133333c2.133333 0 2.133333 2.133333 2.133333 2.133333l6.4 6.4 2.133333 2.133334 2.133334 2.133333v4.266667s0 2.133333 2.133333 2.133333c0 2.133333 0 2.133333 2.133333 4.266667v14.933333c0 4.266667 0 8.533333-2.133333 12.8 0 2.133333 0 4.266667 2.133333 6.4l25.6 14.933333c2.133333 2.133333 4.266667 0 6.4-2.133333 55.466667-76.8 162.133333-102.4 245.333334-53.333333 76.8 44.8 110.933333 134.4 83.2 215.466666 0 2.133333 0 4.266667 2.133333 6.4l6.4 4.266667c2.133333 2.133333 4.266667 0 6.4-2.133333 53.333333-115.2 8.533333-247.466667-102.4-309.333334z m-174.933333 403.2c-85.333333-46.933333-117.333333-151.466667-74.666667-236.8 2.133333-2.133333 0-4.266667-2.133333-6.4l-25.6-14.933333c-2.133333-2.133333-4.266667 0-6.4 0-4.266667 2.133333-6.4 6.4-10.666667 6.4-2.133333 0-2.133333 2.133333-4.266667 2.133333s-2.133333 0-4.266666 2.133334c-2.133333 0-6.4 2.133333-8.533334 2.133333h-4.266666-2.133334-2.133333-2.133333-2.133334-2.133333-10.666667c-2.133333 0-2.133333 0-4.266666-2.133333 0 0-2.133333 0-2.133334-2.133334h-2.133333c-4.266667-2.133333-6.4-4.266667-10.666667-6.4-2.133333-2.133333-4.266667-2.133333-6.4 0l-25.6 14.933334c-2.133333 2.133333-2.133333 4.266667-2.133333 6.4 40.533333 85.333333 8.533333 187.733333-74.666667 236.8-76.8 44.8-174.933333 27.733333-232.533333-36.266667-2.133333-2.133333-4.266667-2.133333-6.4-2.133333l-6.4 4.266666c-2.133333 2.133333-2.133333 4.266667-2.133333 6.4 76.8 96 217.6 123.733333 328.533333 59.733334 25.6-14.933333 46.933333-32 64-51.2 17.066667 19.2 38.4 38.4 64 51.2 110.933333 64 249.6 34.133333 328.533333-59.733334 2.133333-2.133333 0-4.266667-2.133333-6.4l-6.4-6.4c-2.133333-2.133333-4.266667 0-6.4 2.133334-57.6 61.866667-155.733333 78.933333-232.533333 36.266666z" fill="#00C853" /></svg>